HIERARCHY
ROOT Hips
{
	OFFSET 0.000000 0.000000 0.000000
	CHANNELS 6 Xposition Yposition Zposition Xrotation Yrotation Zrotation
	JOINT LeftUpLeg_virtual
	{
		OFFSET 0.000000 0.000000 0.000000
		CHANNELS 3 Xrotation Yrotation Zrotation
		JOINT LeftUpLeg
		{
			OFFSET 15.427100 -6.655098 0.678600
			CHANNELS 3 Xrotation Yrotation Zrotation
			JOINT LeftLeg
			{
				OFFSET 4.081073 -39.591068 13.024000
				CHANNELS 3 Xrotation Yrotation Zrotation
				JOINT LeftFoot
				{
					OFFSET -4.081074 -37.707932 -15.979700
					CHANNELS 3 Xrotation Yrotation Zrotation
					JOINT LeftToeBase
					{
						OFFSET 5.346399 -15.068900 20.645000
						CHANNELS 3 Xrotation Yrotation Zrotation
						JOINT LeftToe_End
						{
							OFFSET 2.754700 0.931300 11.300900
							CHANNELS 3 Xrotation Yrotation Zrotation
							End Site
							{
								OFFSET 0 0 0
							}
						}
					}
				}
			}
		}
	}
	JOINT RightUpLeg_virtual
	{
		OFFSET 0.000000 0.000000 0.000000
		CHANNELS 3 Xrotation Yrotation Zrotation
		JOINT RightUpLeg
		{
			OFFSET -15.569500 -6.655098 0.678600
			CHANNELS 3 Xrotation Yrotation Zrotation
			JOINT RightLeg
			{
				OFFSET -4.081825 -39.591045 13.023800
				CHANNELS 3 Xrotation Yrotation Zrotation
				JOINT RightFoot
				{
					OFFSET 4.081824 -37.707954 -15.979600
					CHANNELS 3 Xrotation Yrotation Zrotation
					JOINT RightToeBase
					{
						OFFSET -5.346400 -15.068900 20.645000
						CHANNELS 3 Xrotation Yrotation Zrotation
						JOINT RightToe_End
						{
							OFFSET -2.754700 0.931300 11.300900
							CHANNELS 3 Xrotation Yrotation Zrotation
							End Site
							{
								OFFSET 0 0 0
							}
						}
					}
				}
			}
		}
	}
	JOINT Spine_virtual
	{
		OFFSET 0.000000 0.000000 0.000000
		CHANNELS 3 Xrotation Yrotation Zrotation
		JOINT Spine
		{
			OFFSET -0.279200 12.230698 -2.892100
			CHANNELS 3 Xrotation Yrotation Zrotation
			JOINT Spine1
			{
				OFFSET -0.232667 10.192268 -1.242267
				CHANNELS 3 Xrotation Yrotation Zrotation
				JOINT Spine1_split
				{
					OFFSET -0.232667 10.192268 -1.242267
					CHANNELS 3 Xrotation Yrotation Zrotation
					JOINT Spine2
					{
						OFFSET -0.232667 10.192268 -1.242267
						CHANNELS 3 Xrotation Yrotation Zrotation
						JOINT Neck_virtual
						{
							OFFSET 0.000000 0.000000 0.000000
							CHANNELS 3 Xrotation Yrotation Zrotation
							JOINT Neck
							{
								OFFSET -0.418800 17.814194 8.416900
								CHANNELS 3 Xrotation Yrotation Zrotation
								JOINT Head
								{
									OFFSET 0.000000 7.031097 3.806800
									CHANNELS 3 Xrotation Yrotation Zrotation
									JOINT HeadTop_End
									{
										OFFSET 0.000000 24.646606 12.978600
										CHANNELS 3 Xrotation Yrotation Zrotation
										End Site
										{
											OFFSET 0 0 0
										}
									}
								}
							}
						}
						JOINT LeftShoulder_virtual
						{
							OFFSET 0.000000 0.000000 0.000000
							CHANNELS 3 Xrotation Yrotation Zrotation
							JOINT LeftShoulder
							{
								OFFSET 8.476499 7.247704 -3.868750
								CHANNELS 3 Xrotation Yrotation Zrotation
								JOINT LeftShoulder_split
								{
									OFFSET 8.476499 7.247704 -3.868750
									CHANNELS 3 Xrotation Yrotation Zrotation
									JOINT LeftArm
									{
										OFFSET 9.308998 -2.777710 0.208600
										CHANNELS 3 Xrotation Yrotation Zrotation
										JOINT LeftForeArm
										{
											OFFSET 29.972298 0.000000 0.000000
											CHANNELS 3 Xrotation Yrotation Zrotation
											JOINT LeftHand
											{
												OFFSET 26.026505 0.000000 0.000000
												CHANNELS 3 Xrotation Yrotation Zrotation
												End Site
												{
													OFFSET 0 0 0
												}
											}
										}
									}
								}
							}
						}
						JOINT RightShoulder_virtual
						{
							OFFSET 0.000000 0.000000 0.000000
							CHANNELS 3 Xrotation Yrotation Zrotation
							JOINT RightShoulder
							{
								OFFSET -7.570500 7.247704 -3.868750
								CHANNELS 3 Xrotation Yrotation Zrotation
								JOINT RightShoulder_split
								{
									OFFSET -7.570500 7.247704 -3.868750
									CHANNELS 3 Xrotation Yrotation Zrotation
									JOINT RightArm
									{
										OFFSET -9.308998 -2.777710 0.208500
										CHANNELS 3 Xrotation Yrotation Zrotation
										JOINT RightForeArm
										{
											OFFSET -29.972300 0.000000 0.000000
											CHANNELS 3 Xrotation Yrotation Zrotation
											JOINT RightHand
											{
												OFFSET -26.026505 0.000000 0.000000
												CHANNELS 3 Xrotation Yrotation Zrotation
												End Site
												{
													OFFSET 0 0 0
												}
											}
										}
									}
								}
							}
						}
					}
				}
			}
		}
	}
}
MOTION
Frames: 4
Frame Time: 0.03333333
-0.176761 72.664528 -7.774082 0.000000 0.000000 0.000000 -2.358882 -42.039808 3.222900 -30.114861 8.491551 18.918166 51.736228 -7.447235 3.035921 -18.996604 3.596227 -20.351548 2.140995 -0.719635 -5.244488 0.000000 0.000000 0.000000 -2.603221 -40.025793 3.473437 -23.705107 -12.139069 -32.814435 57.265734 11.682882 -4.727015 -30.765088 -24.770362 29.656381 8.704547 8.539711 -13.585708 0.000000 0.000000 0.000000 -4.185955 -38.000553 1.502507 5.211949 4.832568 -0.393866 1.347877 -0.856564 -0.028114 0.022392 -0.194882 -0.001903 0.000000 0.000000 0.000000 3.626790 1.683209 1.415677 9.440449 16.620690 -8.157542 -10.410087 12.894803 -25.300277 0.000000 0.000000 0.000000 3.670631 -0.350646 -0.042481 2.349390 4.001936 -4.704783 1.255711 -6.120223 0.917114 -65.639559 10.308781 -48.631654 114.152596 -78.574626 109.210511 0.000000 0.000000 0.000000 3.579818 -0.059260 1.383944 -3.548175 7.246301 -8.227968 -0.546607 -3.584725 2.128200 -53.857391 29.721141 96.470569 -134.113251 75.692354 131.452755 0.000000 0.000000 0.000000 
-0.163239 72.349892 -7.643967 0.000000 0.000000 0.000000 -2.893357 -42.761537 3.157986 -30.352128 7.749630 18.387938 51.973870 -5.997309 2.499456 -19.101271 4.663543 -19.286207 2.718372 -0.627661 -6.377912 0.000000 0.000000 0.000000 -2.706266 -40.123233 3.606879 -24.149529 -12.202967 -33.078049 58.427398 11.922414 -4.895774 -31.211174 -24.482350 30.075632 9.729478 8.459727 -13.665567 0.000000 0.000000 0.000000 -4.892561 -38.127284 1.304187 5.499603 4.855729 -0.481501 1.308217 -0.732412 0.061011 0.034180 -0.292132 -0.001310 0.000000 0.000000 0.000000 3.734270 1.731708 1.455826 9.707476 16.689939 -8.214353 -9.874273 12.697209 -25.738548 0.000000 0.000000 0.000000 3.606200 -0.243037 -0.009370 2.224961 3.761548 -4.988917 1.535278 -6.456705 1.684988 -65.613318 10.429856 -48.601003 116.534570 -78.390976 111.491766 0.000000 0.000000 0.000000 3.589644 0.008535 1.414536 -3.546182 7.392723 -8.195162 -0.066500 -3.916264 2.108878 -54.256038 29.480637 95.691176 -133.857501 75.836984 131.292642 0.000000 0.000000 0.000000 
-0.084036 71.638596 -7.420254 0.000000 0.000000 0.000000 -3.413012 -42.985157 2.778205 -31.951417 6.202698 18.717078 53.673819 -5.116061 1.979864 -17.182384 4.696149 -19.604142 3.536204 -0.692992 -7.640766 0.000000 0.000000 0.000000 -2.876087 -39.914519 3.330907 -24.584574 -12.198067 -33.150671 59.624826 12.400033 -5.392011 -30.753060 -24.017616 31.590704 9.641417 8.451355 -14.062903 0.000000 0.000000 0.000000 -5.652498 -38.337497 0.795404 5.725115 4.914345 -0.234084 1.323378 -0.553172 0.166229 0.034857 -0.311801 0.007212 0.000000 0.000000 0.000000 4.000362 1.860458 1.478695 9.870363 16.689735 -8.136354 -8.926050 12.899097 -26.274624 0.000000 0.000000 0.000000 3.629061 -0.068368 0.105219 1.973740 3.461385 -5.327390 1.992277 -6.703092 2.408835 -65.274827 10.962925 -48.643118 118.993862 -78.432968 113.807365 0.000000 0.000000 0.000000 3.673621 0.090808 1.463524 -3.529069 7.307414 -8.001900 -0.191858 -3.477339 1.966668 -53.587636 28.615238 93.258303 -135.739983 75.518424 133.055323 0.000000 0.000000 0.000000 
0.133791 70.710037 -7.216732 0.000000 0.000000 0.000000 -3.832877 -42.877622 2.148816 -34.586849 3.727578 19.829984 56.425405 -5.535794 1.787025 -12.878361 2.980000 -21.843044 0.874028 -0.735126 -7.637419 0.000000 0.000000 0.000000 -3.126809 -39.766444 2.698197 -24.904574 -12.259699 -33.027923 60.427852 12.930771 -6.185140 -30.367888 -23.499157 32.915467 9.176299 8.434292 -14.659867 0.000000 0.000000 0.000000 -6.384713 -38.744835 0.085442 5.896819 4.989269 0.275937 1.421288 -0.324105 0.253081 0.042422 -0.254853 0.026064 0.000000 0.000000 0.000000 4.423452 2.029626 1.466618 9.810366 16.629320 -7.722523 -7.808255 13.327134 -26.769543 0.000000 0.000000 0.000000 3.762045 0.134716 0.273727 1.615267 3.183811 -5.606559 2.555322 -6.879124 2.857432 -64.567916 11.911299 -48.806688 122.127252 -78.524690 116.780279 0.000000 0.000000 0.000000 3.842922 0.177321 1.500128 -3.478305 7.085973 -7.764661 -1.023064 -2.329099 1.937256 -51.838052 27.327614 89.808224 -139.363057 74.772512 136.387458 0.000000 0.000000 0.000000 
